HIERARCHY
ROOT root
{
	OFFSET	0	13.1	24.9
	CHANNELS 6  Xposition Yposition Zposition Xrotation Yrotation Zrotation
	JOINT spine_1
	{
		OFFSET	0	9.99999	0
		CHANNELS 3  Xrotation Yrotation Zrotation
		JOINT spine_2
		{
			OFFSET	0	112	-10
			CHANNELS 3  Xrotation Yrotation Zrotation
			JOINT spine_3
			{
				OFFSET	0	206.5	19.3
				CHANNELS 3  Xrotation Yrotation Zrotation
				JOINT spine_4
				{
					OFFSET	0	110.4	14.6
					CHANNELS 3  Xrotation Yrotation Zrotation
					JOINT neck_1
					{
						OFFSET	0	71.8	-50.3
						CHANNELS 3  Xrotation Yrotation Zrotation
						JOINT neck_2
						{
							OFFSET	0	86.2	-25.8
							CHANNELS 3  Xrotation Yrotation Zrotation
							JOINT head_ee
							{
								OFFSET	0	179.8	-8.7
								CHANNELS 3  Xrotation Yrotation Zrotation
								End Site
								{
									OFFSET	1	0	0
								}
							}
						}
					}
					JOINT left_clavicle
					{
						OFFSET	-43.2	22.4	-70.8
						CHANNELS 3  Xrotation Yrotation Zrotation
						JOINT left_shoulder
						{
							OFFSET	-93.9	-5.79999	48.7
							CHANNELS 3  Xrotation Yrotation Zrotation
							JOINT left_elbow
							{
								OFFSET	-291.4	-30.8	15.2
								CHANNELS 3  Xrotation Yrotation Zrotation
								JOINT left_lowarm_twist
								{
									OFFSET	-110.7	-3.89999	13.6
									CHANNELS 3  Xrotation Yrotation Zrotation
									JOINT left_hand
									{
										OFFSET	-110.7	-3.89999	13.6
										CHANNELS 3  Xrotation Yrotation Zrotation
										JOINT left_ee
										{
											OFFSET	-80.8	-5.10001	12.1
											CHANNELS 3  Xrotation Yrotation Zrotation
											End Site
											{
												OFFSET	1	0	0
											}
										}
									}
								}
							}
						}
					}
					JOINT right_clavicle
					{
						OFFSET	43.2	22.4	-70.8
						CHANNELS 3  Xrotation Yrotation Zrotation
						JOINT right_shoulder
						{
							OFFSET	93.9	-5.79999	48.7
							CHANNELS 3  Xrotation Yrotation Zrotation
							JOINT right_elbow
							{
								OFFSET	291.4	-30.8	15.2
								CHANNELS 3  Xrotation Yrotation Zrotation
								JOINT right_lowarm_twist
								{
									OFFSET	110.7	-3.89999	13.6
									CHANNELS 3  Xrotation Yrotation Zrotation
									JOINT right_hand
									{
										OFFSET	110.7	-3.89999	13.6
										CHANNELS 3  Xrotation Yrotation Zrotation
										JOINT right_ee
										{
											OFFSET	80.8	-5.10001	12.1
											CHANNELS 3  Xrotation Yrotation Zrotation
											End Site
											{
												OFFSET	1	0	0
											}
										}
									}
								}
							}
						}
					}
				}
			}
		}
	}
	JOINT left_hip
	{
		OFFSET	-82.8	-127.5	0.300001
		CHANNELS 3  Xrotation Yrotation Zrotation
		JOINT left_knee
		{
			OFFSET	-28.2	-396.7	2.2
			CHANNELS 3  Xrotation Yrotation Zrotation
			JOINT left_ankle
			{
				OFFSET	-11.7	-411.3	35.4
				CHANNELS 3  Xrotation Yrotation Zrotation
				JOINT left_toes
				{
					OFFSET	0	-60	-88.6
					CHANNELS 3  Xrotation Yrotation Zrotation
					JOINT left_foot_ee
					{
						OFFSET	-22.5	-16.5	-42.2
						CHANNELS 3  Xrotation Yrotation Zrotation
						End Site
						{
							OFFSET	1	0	0
						}
					}
				}
			}
		}
	}
	JOINT right_hip
	{
		OFFSET	82.8	-127.5	0.300001
		CHANNELS 3  Xrotation Yrotation Zrotation
		JOINT right_knee
		{
			OFFSET	28.2	-396.7	2.2
			CHANNELS 3  Xrotation Yrotation Zrotation
			JOINT right_ankle
			{
				OFFSET	11.7	-411.3	35.4
				CHANNELS 3  Xrotation Yrotation Zrotation
				JOINT right_toes
				{
					OFFSET	0	-60	-88.6
					CHANNELS 3  Xrotation Yrotation Zrotation
					JOINT right_foot_ee
					{
						OFFSET	22.5	-16.5	-42.2
						CHANNELS 3  Xrotation Yrotation Zrotation
						End Site
						{
							OFFSET	1	0	0
						}
					}
				}
			}
		}
	}
}
MOTION
Frames: 6
Frame Time: 0.02
1372.05 701.618 -1475.22 -15.4650716245 16.464094725 2.76143075554 5.56606 0.330199 1.51781 5.56731 0.232959 1.53574 5.57226 0.0560171 1.55229 5.56902 0.300441 1.52397 -11.5706 7.39358 -6.81863 -11.5952 18.4215 -4.54188 -0.0 0.0 -0.0 4.8952 8.92767 9.65081 -77.2794 -74.8481 -15.8828 0.246727 -6.96838 0.0150221 5.04075 0.150131 -0.626164 -11.4807 29.1992 -69.4659 -0.0 0.0 -0.0 9.5034 27.101 -17.6357 -29.4518 32.5074 -84.0353 0.386628 10.8424 -0.0366918 -58.6273 5.11255 -5.0564 -8.66046 -30.3839 37.1865 0.0 0.0 0.0 9.12686 -12.805 13.4688 -14.0355 0.318999 2.12494 42.0689 23.5316 -5.314 5.25431 -0.0 -0.0 -0.0 0.0 -0.0 49.9994 20.8786 -7.18523 -8.1109 -0.248002 -1.21904 -8.14408 3.7215 -1.23976 6.23819 -0.0 -0.0 0.0 0.0 0.0 
1344.23018111 695.087 -1530.69674322 -15.0704216682 17.4824207335 2.70299496979 5.70612 0.243146 1.36903 5.70715 0.155547 1.38172 5.7098 1.92766e-05 1.39045 5.70717 0.219593 1.373 -12.081 6.51769 -7.69626 -12.0666 17.2948 -5.56124 -0.0 0.0 -0.0 4.16793 10.0326 8.38874 -75.6339 -74.3181 -10.3763 0.361396 -10.1501 0.0320951 0.179389 0.00628594 -0.022048 -12.0712 32.3255 -68.7262 -0.0 0.0 -0.0 9.39631 27.9291 -17.3036 -28.149 32.2697 -83.8212 0.335707 9.44205 -0.0277242 -58.4891 5.09547 -5.05166 -8.35142 -29.1728 36.4792 0.0 0.0 0.0 7.9989 -11.5975 14.0157 -19.348 0.302826 2.93958 41.8784 21.4462 -5.23588 6.49614 -0.0 -0.0 -0.0 0.0 -0.0 50.5806 22.5826 -8.21215 -19.3814 -0.302486 -2.9447 -8.45261 4.18103 -1.28967 7.622 -0.0 -0.0 0.0 0.0 0.0 
1344.92892728 695.087 -1531.04166941 -15.0128587516 16.7876573656 2.50762169814 5.70612 0.243146 1.36903 5.70715 0.155547 1.38172 5.7098 1.92766e-05 1.39045 5.70717 0.219593 1.373 -12.081 6.51769 -7.69626 -12.0666 17.2948 -5.56124 -0.0 0.0 -0.0 4.16793 10.0326 8.38874 -75.6339 -74.3181 -10.3763 0.361396 -10.1501 0.0320951 0.179389 0.00628594 -0.022048 -12.0712 32.3255 -68.7262 -0.0 0.0 -0.0 9.39631 27.9291 -17.3036 -28.149 32.2697 -83.8212 0.335707 9.44205 -0.0277242 -58.4891 5.09547 -5.05166 -8.35142 -29.1728 36.4792 0.0 0.0 0.0 7.9989 -11.5975 14.0157 -19.348 0.302826 2.93958 41.8784 21.4462 -5.23588 6.49614 -0.0 -0.0 -0.0 0.0 -0.0 50.5806 22.5826 -8.21215 -19.3814 -0.302486 -2.9447 -8.45261 4.18103 -1.28967 7.622 -0.0 -0.0 0.0 0.0 0.0 
1328.39159821 694.537 -1553.66419156 -13.8327553176 17.0096702575 1.41351382136 5.66159 0.265371 1.41746 5.6627 0.174646 1.43147 5.6659 0.0123327 1.44203 5.66307 0.239897 1.422 -13.8886 6.44738 -6.05703 -13.9756 15.9972 -3.7289 -0.0 0.0 -0.0 3.45301 11.2434 7.19073 -74.6679 -74.6944 -7.16296 0.433541 -12.1211 0.0460307 -2.7137 -0.103485 0.331028 -12.4153 33.973 -68.3854 -0.0 0.0 -0.0 9.50934 27.8966 -17.5585 -26.1308 32.1142 -83.759 0.309894 8.72768 -0.0236484 -58.3933 5.08364 -5.04836 -8.24034 -28.3745 36.639 0.0 0.0 0.0 7.7597 -10.7426 14.2781 -22.1968 0.263076 3.37485 41.424 20.5959 -5.17283 7.08646 -0.0 -0.0 -0.0 0.0 -0.0 51.3343 23.5476 -8.89722 -24.7354 -0.209457 -3.76069 -7.48822 2.65013 -1.13424 8.0704 -0.0 -0.0 0.0 0.0 0.0 
1319.03569059 702.979 -1570.06774482 -14.0335989436 16.4912670125 1.82326259999 5.6724 0.274709 1.20455 5.67318 0.197509 1.21959 5.67655 0.0591478 1.23406 5.67451 0.253287 1.20924 -14.0039 6.04978 -5.98585 -14.0773 15.1888 -3.77379 -0.0 0.0 -0.0 3.40074 13.009 7.16297 -74.8284 -75.8627 -5.26263 0.44944 -12.5518 0.0494274 -4.22752 -0.168 0.51348 -12.4053 33.9261 -68.3983 -0.0 0.0 -0.0 9.67243 27.8505 -17.9266 -25.8168 32.0644 -82.3059 0.325507 9.1601 -0.0260757 -58.4658 5.0926 -5.05086 -8.26071 -28.376 36.7846 0.0 0.0 0.0 7.93555 -10.5675 14.4367 -22.1957 0.263096 3.37468 41.114 20.869 -5.15181 6.90706 -0.0 -0.0 -0.0 0.0 -0.0 50.3927 23.7479 -8.28297 -26.4169 -0.164547 -4.01482 -5.77433 1.26966 -0.868077 8.07429 -0.0 -0.0 0.0 0.0 0.0 
1320.87381437 702.979 -1571.07201993 -13.9572272808 15.4195566155 1.54544818543 5.6724 0.274709 1.20455 5.67318 0.197509 1.21959 5.67655 0.0591478 1.23406 5.67451 0.253287 1.20924 -14.0039 6.04978 -5.98585 -14.0773 15.1888 -3.77379 -0.0 0.0 -0.0 3.40074 13.009 7.16297 -74.8284 -75.8627 -5.26263 0.44944 -12.5518 0.0494274 -4.22752 -0.168 0.51348 -12.4053 33.9261 -68.3983 -0.0 0.0 -0.0 9.67243 27.8505 -17.9266 -25.8168 32.0644 -82.3059 0.325507 9.1601 -0.0260757 -58.4658 5.0926 -5.05086 -8.26071 -28.376 36.7846 0.0 0.0 0.0 7.93555 -10.5675 14.4367 -22.1957 0.263096 3.37468 41.114 20.869 -5.15181 6.90706 -0.0 -0.0 -0.0 0.0 -0.0 50.3927 23.7479 -8.28297 -26.4169 -0.164547 -4.01482 -5.77433 1.26966 -0.868077 8.07429 -0.0 -0.0 0.0 0.0 0.0 
